<svg width="71" height="68" viewBox="0 0 71 68" fill="none" xmlns="http://www.w3.org/2000/svg">
<circle cx="38.5" cy="35.5" r="32.5" fill="url(#paint0_linear_5_194)"/>
<circle cx="32.5" cy="32.5" r="32.5" fill="white"/>
<g filter="url(#filter0_d_5_194)">
<path d="M29.104 20.704C29.4667 20.8747 29.8507 21.0987 30.256 21.376C30.6613 21.632 31.0347 21.9093 31.376 22.208C31.7173 22.4853 32.0053 22.7627 32.24 23.04C32.4747 23.296 32.592 23.4987 32.592 23.648C32.2933 23.584 31.9627 23.5307 31.6 23.488C31.2587 23.4453 30.928 23.424 30.608 23.424C29.456 23.424 28.336 23.68 27.248 24.192C26.16 24.6827 25.1253 25.3973 24.144 26.336C23.1627 27.2747 22.256 28.4267 21.424 29.792C20.6133 31.136 19.9093 32.6613 19.312 34.368C18.8213 35.7973 18.4267 37.216 18.128 38.624C17.8293 40.0107 17.68 41.1733 17.68 42.112C17.68 43.3067 17.9253 43.9253 18.416 43.968C18.544 43.968 18.7573 43.9893 19.056 44.032C19.376 44.096 19.7067 44.1707 20.048 44.256C20.4107 44.3413 20.7627 44.4267 21.104 44.512C21.4667 44.6187 21.7653 44.7147 22 44.8C22.8107 44.7573 23.76 44.384 24.848 43.68C25.936 42.976 27.0027 42.0373 28.048 40.864C28.9653 39.84 29.7867 38.72 30.512 37.504C31.2587 36.2667 31.888 34.976 32.4 33.632C32.912 32.2667 33.296 30.8693 33.552 29.44C33.8293 28.0107 33.968 26.592 33.968 25.184C33.968 24.7573 33.9573 24.3413 33.936 23.936C33.9147 23.5307 33.8827 23.2533 33.84 23.104C34.7147 23.5307 35.3333 24.032 35.696 24.608C36.0587 25.184 36.24 25.92 36.24 26.816C36.24 28.096 36.0373 29.472 35.632 30.944C35.2267 32.416 34.6613 33.888 33.936 35.36C33.232 36.832 32.3893 38.2507 31.408 39.616C30.4267 40.96 29.36 42.1653 28.208 43.232C26.6933 44.64 25.456 45.4293 24.496 45.6C25.072 45.8987 25.7333 46.2187 26.48 46.56C27.2267 46.9227 27.952 47.2533 28.656 47.552C29.36 47.872 29.9893 48.1387 30.544 48.352C31.0987 48.5653 31.472 48.6827 31.664 48.704C31.8773 48.6827 32.1547 48.544 32.496 48.288C32.8373 48.0533 33.1253 47.7653 33.36 47.424C33.4667 47.552 33.5627 47.7227 33.648 47.936C33.7547 48.1493 33.8187 48.3093 33.84 48.416C33.7547 48.7147 33.5733 49.056 33.296 49.44C33.04 49.8453 32.7413 50.2293 32.4 50.592C32.0587 50.976 31.7067 51.3067 31.344 51.584C31.0027 51.8613 30.704 52.032 30.448 52.096C30.0853 52.0747 29.744 52.0213 29.424 51.936C29.1253 51.872 28.7947 51.7547 28.432 51.584C28.0693 51.4347 27.664 51.2107 27.216 50.912C26.768 50.6347 26.2133 50.272 25.552 49.824C24.3787 49.0133 23.3547 48.3413 22.48 47.808C21.6053 47.2747 20.8053 46.848 20.08 46.528C19.3547 46.208 18.672 45.984 18.032 45.856C17.392 45.728 16.7307 45.664 16.048 45.664C13.6587 45.664 12.336 46.464 12.08 48.064C11.76 47.9147 11.5787 47.712 11.536 47.456C11.664 46.368 12.0587 45.536 12.72 44.96C13.4027 44.384 14.448 44.0107 15.856 43.84C14.8747 42.9867 14.384 41.4933 14.384 39.36C14.384 37.8667 14.5547 36.3627 14.896 34.848C15.2587 33.312 15.7387 31.84 16.336 30.432C16.9547 29.024 17.6693 27.712 18.48 26.496C19.312 25.2587 20.1973 24.1813 21.136 23.264C22.096 22.3467 23.088 21.632 24.112 21.12C25.136 20.5867 26.1493 20.32 27.152 20.32C27.5147 20.32 27.8453 20.352 28.144 20.416C28.464 20.48 28.784 20.576 29.104 20.704ZM37.672 46.432C36.648 46.1333 35.9333 45.8347 35.528 45.536C35.144 45.2373 34.952 44.864 34.952 44.416C34.952 44.0747 35.048 43.5947 35.24 42.976C35.432 42.3573 35.7093 41.632 36.072 40.8C36.456 39.9467 36.904 39.008 37.416 37.984C37.9493 36.96 38.5467 35.8613 39.208 34.688C38.6533 34.6667 38.152 34.656 37.704 34.656C37.2773 34.6347 36.9253 34.624 36.648 34.624C36.776 34.304 37.1387 34.0267 37.736 33.792C38.3333 33.5573 39.1227 33.3547 40.104 33.184C40.936 31.7973 41.8213 30.4747 42.76 29.216C43.72 27.9573 44.68 26.8053 45.64 25.76C46.6 24.6933 47.56 23.7653 48.52 22.976C49.48 22.1653 50.3973 21.5253 51.272 21.056C51.2933 20.9067 51.304 20.7787 51.304 20.672C51.3253 20.5653 51.336 20.4907 51.336 20.448C51.6347 20.448 52.0293 20.5227 52.52 20.672C53.032 20.8213 53.5227 21.0027 53.992 21.216C54.4827 21.4293 54.9093 21.6533 55.272 21.888C55.656 22.1013 55.8693 22.2827 55.912 22.432C55.208 23.6693 54.5147 25.5253 53.832 28C53.1493 30.4533 52.584 33.3973 52.136 36.832C52.0293 37.6853 51.9333 38.656 51.848 39.744C51.784 40.832 51.752 42.048 51.752 43.392C51.752 43.8613 51.752 44.3413 51.752 44.832C51.752 45.3227 51.7733 45.8347 51.816 46.368C51.7733 46.3893 51.7307 46.4 51.688 46.4C51.6453 46.4 51.56 46.4 51.432 46.4C51.1333 46.4 50.7813 46.3467 50.376 46.24C49.992 46.1547 49.608 46.0373 49.224 45.888C48.8613 45.76 48.5413 45.6107 48.264 45.44C48.008 45.2693 47.848 45.12 47.784 44.992C47.7627 44.7147 47.752 44.4373 47.752 44.16C47.752 43.904 47.752 43.6267 47.752 43.328C47.752 42.0053 47.7947 40.6613 47.88 39.296C47.9867 37.9307 48.1573 36.5227 48.392 35.072C48.0933 35.0507 47.6987 35.0293 47.208 35.008C46.7173 34.9653 46.1627 34.9333 45.544 34.912C44.9467 34.8907 44.296 34.8693 43.592 34.848C42.9093 34.8053 42.2373 34.7733 41.576 34.752C41.064 35.712 40.584 36.672 40.136 37.632C39.688 38.5707 39.304 39.52 38.984 40.48C38.6213 41.504 38.3227 42.528 38.088 43.552C37.8747 44.576 37.736 45.536 37.672 46.432ZM50.024 27.2C50.1093 26.9013 50.2053 26.496 50.312 25.984C50.44 25.4507 50.5573 24.896 50.664 24.32C50.1307 24.512 49.5333 24.864 48.872 25.376C48.232 25.888 47.56 26.528 46.856 27.296C46.1733 28.0427 45.4693 28.896 44.744 29.856C44.04 30.7947 43.3573 31.7973 42.696 32.864C44.488 32.7147 46.5253 32.6187 48.808 32.576C48.9787 31.68 49.16 30.7947 49.352 29.92C49.5653 29.024 49.7893 28.1173 50.024 27.2Z" fill="black"/>
</g>
<defs>
<filter id="filter0_d_5_194" x="11.536" y="20.32" width="50.376" height="37.776" filterUnits="userSpaceOnUse" color-interpolation-filters="sRGB">
<feFlood flood-opacity="0" result="BackgroundImageFix"/>
<feColorMatrix in="SourceAlpha" type="matrix" values="0 0 0 0 0 0 0 0 0 0 0 0 0 0 0 0 0 0 127 0" result="hardAlpha"/>
<feOffset dx="3" dy="3"/>
<feGaussianBlur stdDeviation="1.5"/>
<feComposite in2="hardAlpha" operator="out"/>
<feColorMatrix type="matrix" values="0 0 0 0 0 0 0 0 0 0 0 0 0 0 0 0 0 0 0.25 0"/>
<feBlend mode="normal" in2="BackgroundImageFix" result="effect1_dropShadow_5_194"/>
<feBlend mode="normal" in="SourceGraphic" in2="effect1_dropShadow_5_194" result="shape"/>
</filter>
<linearGradient id="paint0_linear_5_194" x1="38.5" y1="3" x2="38.5" y2="68" gradientUnits="userSpaceOnUse">
<stop stop-color="#5E498B"/>
<stop offset="1" stop-color="#FF715E" stop-opacity="0.62"/>
</linearGradient>
</defs>
</svg>
